<?xml version="1.0" encoding="UTF-8" standalone="no"?>
<!DOCTYPE svg PUBLIC "-//W3C//DTD SVG 1.1//EN"
 "http://www.w3.org/Graphics/SVG/1.1/DTD/svg11.dtd">
<!-- Generated by graphviz version 10.0.1 (20240210.2158)
 -->
<!-- Title: ArvoreBin Pages: 1 -->
<svg width="381pt" height="664pt"
 viewBox="0.00 0.00 381.24 663.85" xmlns="http://www.w3.org/2000/svg" xmlns:xlink="http://www.w3.org/1999/xlink">
<g id="graph0" class="graph" transform="scale(1 1) rotate(0) translate(4 659.85)">
<title>ArvoreBin</title>
<polygon fill="white" stroke="none" points="-4,4 -4,-659.85 377.24,-659.85 377.24,4 -4,4"/>
<!-- 789 -->
<g id="node1" class="node">
<title>789</title>
<ellipse fill="#9370db" stroke="black" cx="174.63" cy="-631.74" rx="24.12" ry="24.12"/>
<text text-anchor="middle" x="174.63" y="-626.31" font-family="Times New Roman,serif" font-size="14.00">789</text>
</g>
<!-- 568 -->
<g id="node2" class="node">
<title>568</title>
<ellipse fill="#9370db" stroke="black" cx="141.63" cy="-547.5" rx="24.12" ry="24.12"/>
<text text-anchor="middle" x="141.63" y="-542.07" font-family="Times New Roman,serif" font-size="14.00">568</text>
</g>
<!-- 789&#45;&gt;568 -->
<g id="edge1" class="edge">
<title>789&#45;&gt;568</title>
<path fill="none" stroke="black" d="M165.96,-609.13C162.46,-600.42 158.35,-590.18 154.52,-580.63"/>
<polygon fill="black" stroke="black" points="157.89,-579.63 150.92,-571.65 151.39,-582.24 157.89,-579.63"/>
</g>
<!-- 996 -->
<g id="node3" class="node">
<title>996</title>
<ellipse fill="#9370db" stroke="black" cx="223.63" cy="-547.5" rx="24.12" ry="24.12"/>
<text text-anchor="middle" x="223.63" y="-542.07" font-family="Times New Roman,serif" font-size="14.00">996</text>
</g>
<!-- 789&#45;&gt;996 -->
<g id="edge2" class="edge">
<title>789&#45;&gt;996</title>
<path fill="none" stroke="black" d="M186.74,-610.41C192.45,-600.82 199.38,-589.19 205.69,-578.6"/>
<polygon fill="black" stroke="black" points="208.6,-580.56 210.71,-570.18 202.58,-576.98 208.6,-580.56"/>
</g>
<!-- 57 -->
<g id="node4" class="node">
<title>57</title>
<ellipse fill="#9370db" stroke="black" cx="79.63" cy="-458.77" rx="19.63" ry="19.63"/>
<text text-anchor="middle" x="79.63" y="-453.35" font-family="Times New Roman,serif" font-size="14.00">57</text>
</g>
<!-- 568&#45;&gt;57 -->
<g id="edge3" class="edge">
<title>568&#45;&gt;57</title>
<path fill="none" stroke="black" d="M127.87,-527.25C118.85,-514.64 106.99,-498.04 97.28,-484.47"/>
<polygon fill="black" stroke="black" points="100.21,-482.54 91.54,-476.44 94.51,-486.61 100.21,-482.54"/>
</g>
<!-- 786 -->
<g id="node5" class="node">
<title>786</title>
<ellipse fill="#9370db" stroke="black" cx="141.63" cy="-458.77" rx="24.12" ry="24.12"/>
<text text-anchor="middle" x="141.63" y="-453.35" font-family="Times New Roman,serif" font-size="14.00">786</text>
</g>
<!-- 568&#45;&gt;786 -->
<g id="edge4" class="edge">
<title>568&#45;&gt;786</title>
<path fill="none" stroke="black" d="M141.63,-523.26C141.63,-514.48 141.63,-504.3 141.63,-494.68"/>
<polygon fill="black" stroke="black" points="145.13,-494.89 141.63,-484.89 138.13,-494.89 145.13,-494.89"/>
</g>
<!-- 875 -->
<g id="node15" class="node">
<title>875</title>
<ellipse fill="#9370db" stroke="black" cx="223.63" cy="-458.77" rx="24.12" ry="24.12"/>
<text text-anchor="middle" x="223.63" y="-453.35" font-family="Times New Roman,serif" font-size="14.00">875</text>
</g>
<!-- 996&#45;&gt;875 -->
<g id="edge14" class="edge">
<title>996&#45;&gt;875</title>
<path fill="none" stroke="black" d="M223.63,-523.26C223.63,-514.48 223.63,-504.3 223.63,-494.68"/>
<polygon fill="black" stroke="black" points="227.13,-494.89 223.63,-484.89 220.13,-494.89 227.13,-494.89"/>
</g>
<!-- 1002 -->
<g id="node16" class="node">
<title>1002</title>
<ellipse fill="#9370db" stroke="black" cx="327.63" cy="-458.77" rx="28.61" ry="28.61"/>
<text text-anchor="middle" x="327.63" y="-453.35" font-family="Times New Roman,serif" font-size="14.00">1002</text>
</g>
<!-- 996&#45;&gt;1002 -->
<g id="edge15" class="edge">
<title>996&#45;&gt;1002</title>
<path fill="none" stroke="black" d="M241.74,-531.39C257.15,-518.55 279.58,-499.84 297.65,-484.77"/>
<polygon fill="black" stroke="black" points="299.52,-487.76 304.96,-478.67 295.04,-482.39 299.52,-487.76"/>
</g>
<!-- 39 -->
<g id="node6" class="node">
<title>39</title>
<ellipse fill="#9370db" stroke="black" cx="21.63" cy="-365.55" rx="19.63" ry="19.63"/>
<text text-anchor="middle" x="21.63" y="-360.13" font-family="Times New Roman,serif" font-size="14.00">39</text>
</g>
<!-- 57&#45;&gt;39 -->
<g id="edge5" class="edge">
<title>57&#45;&gt;39</title>
<path fill="none" stroke="black" d="M69.52,-441.88C60.76,-428.1 47.92,-407.91 37.74,-391.9"/>
<polygon fill="black" stroke="black" points="40.94,-390.4 32.62,-383.84 35.03,-394.16 40.94,-390.4"/>
</g>
<!-- 65 -->
<g id="node7" class="node">
<title>65</title>
<ellipse fill="#9370db" stroke="black" cx="79.63" cy="-365.55" rx="19.63" ry="19.63"/>
<text text-anchor="middle" x="79.63" y="-360.13" font-family="Times New Roman,serif" font-size="14.00">65</text>
</g>
<!-- 57&#45;&gt;65 -->
<g id="edge6" class="edge">
<title>57&#45;&gt;65</title>
<path fill="none" stroke="black" d="M79.63,-438.87C79.63,-426.76 79.63,-410.78 79.63,-396.91"/>
<polygon fill="black" stroke="black" points="83.13,-396.94 79.63,-386.94 76.13,-396.94 83.13,-396.94"/>
</g>
<!-- 651 -->
<g id="node14" class="node">
<title>651</title>
<ellipse fill="#9370db" stroke="black" cx="141.63" cy="-365.55" rx="24.12" ry="24.12"/>
<text text-anchor="middle" x="141.63" y="-360.13" font-family="Times New Roman,serif" font-size="14.00">651</text>
</g>
<!-- 786&#45;&gt;651 -->
<g id="edge13" class="edge">
<title>786&#45;&gt;651</title>
<path fill="none" stroke="black" d="M141.63,-434.28C141.63,-424.28 141.63,-412.41 141.63,-401.41"/>
<polygon fill="black" stroke="black" points="145.13,-401.48 141.63,-391.48 138.13,-401.48 145.13,-401.48"/>
</g>
<!-- 49 -->
<g id="node8" class="node">
<title>49</title>
<ellipse fill="#9370db" stroke="black" cx="19.63" cy="-276.83" rx="19.63" ry="19.63"/>
<text text-anchor="middle" x="19.63" y="-271.4" font-family="Times New Roman,serif" font-size="14.00">49</text>
</g>
<!-- 39&#45;&gt;49 -->
<g id="edge7" class="edge">
<title>39&#45;&gt;49</title>
<path fill="none" stroke="black" d="M21.19,-345.74C20.94,-334.79 20.62,-320.73 20.33,-308.24"/>
<polygon fill="black" stroke="black" points="23.83,-308.34 20.1,-298.42 16.83,-308.5 23.83,-308.34"/>
</g>
<!-- 146 -->
<g id="node9" class="node">
<title>146</title>
<ellipse fill="#9370db" stroke="black" cx="81.63" cy="-276.83" rx="24.12" ry="24.12"/>
<text text-anchor="middle" x="81.63" y="-271.4" font-family="Times New Roman,serif" font-size="14.00">146</text>
</g>
<!-- 65&#45;&gt;146 -->
<g id="edge8" class="edge">
<title>65&#45;&gt;146</title>
<path fill="none" stroke="black" d="M80.06,-345.74C80.28,-336.05 80.56,-323.92 80.83,-312.61"/>
<polygon fill="black" stroke="black" points="84.32,-312.84 81.05,-302.76 77.32,-312.68 84.32,-312.84"/>
</g>
<!-- 265 -->
<g id="node10" class="node">
<title>265</title>
<ellipse fill="#9370db" stroke="black" cx="81.63" cy="-192.59" rx="24.12" ry="24.12"/>
<text text-anchor="middle" x="81.63" y="-187.17" font-family="Times New Roman,serif" font-size="14.00">265</text>
</g>
<!-- 146&#45;&gt;265 -->
<g id="edge9" class="edge">
<title>146&#45;&gt;265</title>
<path fill="none" stroke="black" d="M81.63,-252.48C81.63,-245.02 81.63,-236.58 81.63,-228.48"/>
<polygon fill="black" stroke="black" points="85.13,-228.51 81.63,-218.51 78.13,-228.51 85.13,-228.51"/>
</g>
<!-- 222 -->
<g id="node11" class="node">
<title>222</title>
<ellipse fill="#9370db" stroke="black" cx="48.63" cy="-108.35" rx="24.12" ry="24.12"/>
<text text-anchor="middle" x="48.63" y="-102.93" font-family="Times New Roman,serif" font-size="14.00">222</text>
</g>
<!-- 265&#45;&gt;222 -->
<g id="edge10" class="edge">
<title>265&#45;&gt;222</title>
<path fill="none" stroke="black" d="M72.96,-169.98C69.46,-161.27 65.35,-151.04 61.52,-141.48"/>
<polygon fill="black" stroke="black" points="64.89,-140.48 57.92,-132.51 58.39,-143.09 64.89,-140.48"/>
</g>
<!-- 330 -->
<g id="node12" class="node">
<title>330</title>
<ellipse fill="#9370db" stroke="black" cx="114.63" cy="-108.35" rx="24.12" ry="24.12"/>
<text text-anchor="middle" x="114.63" y="-102.93" font-family="Times New Roman,serif" font-size="14.00">330</text>
</g>
<!-- 265&#45;&gt;330 -->
<g id="edge11" class="edge">
<title>265&#45;&gt;330</title>
<path fill="none" stroke="black" d="M90.3,-169.98C93.79,-161.27 97.9,-151.04 101.73,-141.48"/>
<polygon fill="black" stroke="black" points="104.86,-143.09 105.34,-132.51 98.36,-140.48 104.86,-143.09"/>
</g>
<!-- 404 -->
<g id="node13" class="node">
<title>404</title>
<ellipse fill="#9370db" stroke="black" cx="114.63" cy="-24.12" rx="24.12" ry="24.12"/>
<text text-anchor="middle" x="114.63" y="-18.69" font-family="Times New Roman,serif" font-size="14.00">404</text>
</g>
<!-- 330&#45;&gt;404 -->
<g id="edge12" class="edge">
<title>330&#45;&gt;404</title>
<path fill="none" stroke="black" d="M114.63,-84.01C114.63,-76.54 114.63,-68.11 114.63,-60.01"/>
<polygon fill="black" stroke="black" points="118.13,-60.04 114.63,-50.04 111.13,-60.04 118.13,-60.04"/>
</g>
<!-- 793 -->
<g id="node17" class="node">
<title>793</title>
<ellipse fill="#9370db" stroke="black" cx="207.63" cy="-365.55" rx="24.12" ry="24.12"/>
<text text-anchor="middle" x="207.63" y="-360.13" font-family="Times New Roman,serif" font-size="14.00">793</text>
</g>
<!-- 875&#45;&gt;793 -->
<g id="edge16" class="edge">
<title>875&#45;&gt;793</title>
<path fill="none" stroke="black" d="M219.59,-434.75C217.79,-424.49 215.63,-412.19 213.65,-400.87"/>
<polygon fill="black" stroke="black" points="217.1,-400.3 211.92,-391.06 210.21,-401.51 217.1,-400.3"/>
</g>
<!-- 971 -->
<g id="node18" class="node">
<title>971</title>
<ellipse fill="#9370db" stroke="black" cx="273.63" cy="-365.55" rx="24.12" ry="24.12"/>
<text text-anchor="middle" x="273.63" y="-360.13" font-family="Times New Roman,serif" font-size="14.00">971</text>
</g>
<!-- 875&#45;&gt;971 -->
<g id="edge17" class="edge">
<title>875&#45;&gt;971</title>
<path fill="none" stroke="black" d="M234.97,-437.07C241.43,-425.29 249.64,-410.32 256.83,-397.2"/>
<polygon fill="black" stroke="black" points="259.86,-398.95 261.6,-388.5 253.72,-395.58 259.86,-398.95"/>
</g>
<!-- 2369 -->
<g id="node20" class="node">
<title>2369</title>
<ellipse fill="#9370db" stroke="black" cx="344.63" cy="-365.55" rx="28.61" ry="28.61"/>
<text text-anchor="middle" x="344.63" y="-360.13" font-family="Times New Roman,serif" font-size="14.00">2369</text>
</g>
<!-- 1002&#45;&gt;2369 -->
<g id="edge19" class="edge">
<title>1002&#45;&gt;2369</title>
<path fill="none" stroke="black" d="M332.73,-430.4C334.21,-422.47 335.85,-413.65 337.43,-405.16"/>
<polygon fill="black" stroke="black" points="340.86,-405.86 339.25,-395.39 333.98,-404.58 340.86,-405.86"/>
</g>
<!-- 889 -->
<g id="node19" class="node">
<title>889</title>
<ellipse fill="#9370db" stroke="black" cx="273.63" cy="-276.83" rx="24.12" ry="24.12"/>
<text text-anchor="middle" x="273.63" y="-271.4" font-family="Times New Roman,serif" font-size="14.00">889</text>
</g>
<!-- 971&#45;&gt;889 -->
<g id="edge18" class="edge">
<title>971&#45;&gt;889</title>
<path fill="none" stroke="black" d="M273.63,-341.31C273.63,-332.54 273.63,-322.35 273.63,-312.74"/>
<polygon fill="black" stroke="black" points="277.13,-312.95 273.63,-302.95 270.13,-312.95 277.13,-312.95"/>
</g>
</g>
</svg>
