<?xml version="1.0" encoding="UTF-8" standalone="no"?>
<!DOCTYPE svg PUBLIC "-//W3C//DTD SVG 1.1//EN"
 "http://www.w3.org/Graphics/SVG/1.1/DTD/svg11.dtd">
<!-- Generated by graphviz version 10.0.1 (20240210.2158)
 -->
<!-- Title: ArvoreBin Pages: 1 -->
<svg width="366pt" height="468pt"
 viewBox="0.00 0.00 365.75 468.44" xmlns="http://www.w3.org/2000/svg" xmlns:xlink="http://www.w3.org/1999/xlink">
<g id="graph0" class="graph" transform="scale(1 1) rotate(0) translate(4 464.44)">
<title>ArvoreBin</title>
<polygon fill="white" stroke="none" points="-4,4 -4,-464.44 361.75,-464.44 361.75,4 -4,4"/>
<!-- 111 -->
<g id="node1" class="node">
<title>111</title>
<ellipse fill="#9370db" stroke="black" cx="168.63" cy="-436.32" rx="24.12" ry="24.12"/>
<text text-anchor="middle" x="168.63" y="-430.89" font-family="Times New Roman,serif" font-size="14.00">111</text>
</g>
<!-- 95 -->
<g id="node2" class="node">
<title>95</title>
<ellipse fill="#9370db" stroke="black" cx="135.63" cy="-352.08" rx="19.63" ry="19.63"/>
<text text-anchor="middle" x="135.63" y="-346.66" font-family="Times New Roman,serif" font-size="14.00">95</text>
</g>
<!-- 111&#45;&gt;95 -->
<g id="edge1" class="edge">
<title>111&#45;&gt;95</title>
<path fill="none" stroke="black" d="M159.96,-413.71C155.96,-403.75 151.17,-391.8 146.89,-381.16"/>
<polygon fill="black" stroke="black" points="150.22,-380.05 143.25,-372.07 143.72,-382.66 150.22,-380.05"/>
</g>
<!-- 222 -->
<g id="node3" class="node">
<title>222</title>
<ellipse fill="#9370db" stroke="black" cx="201.63" cy="-352.08" rx="24.12" ry="24.12"/>
<text text-anchor="middle" x="201.63" y="-346.66" font-family="Times New Roman,serif" font-size="14.00">222</text>
</g>
<!-- 111&#45;&gt;222 -->
<g id="edge2" class="edge">
<title>111&#45;&gt;222</title>
<path fill="none" stroke="black" d="M177.3,-413.71C180.79,-405 184.9,-394.76 188.73,-385.21"/>
<polygon fill="black" stroke="black" points="191.86,-386.82 192.34,-376.23 185.36,-384.21 191.86,-386.82"/>
</g>
<!-- 47 -->
<g id="node4" class="node">
<title>47</title>
<ellipse fill="#9370db" stroke="black" cx="73.63" cy="-267.84" rx="19.63" ry="19.63"/>
<text text-anchor="middle" x="73.63" y="-262.42" font-family="Times New Roman,serif" font-size="14.00">47</text>
</g>
<!-- 95&#45;&gt;47 -->
<g id="edge3" class="edge">
<title>95&#45;&gt;47</title>
<path fill="none" stroke="black" d="M124.26,-336C115.22,-324.02 102.41,-307.03 91.94,-293.13"/>
<polygon fill="black" stroke="black" points="94.86,-291.2 86.05,-285.32 89.27,-295.41 94.86,-291.2"/>
</g>
<!-- 100 -->
<g id="node5" class="node">
<title>100</title>
<ellipse fill="#9370db" stroke="black" cx="135.63" cy="-267.84" rx="24.12" ry="24.12"/>
<text text-anchor="middle" x="135.63" y="-262.42" font-family="Times New Roman,serif" font-size="14.00">100</text>
</g>
<!-- 95&#45;&gt;100 -->
<g id="edge4" class="edge">
<title>95&#45;&gt;100</title>
<path fill="none" stroke="black" d="M135.63,-332.01C135.63,-323.57 135.63,-313.39 135.63,-303.67"/>
<polygon fill="black" stroke="black" points="139.13,-303.73 135.63,-293.73 132.13,-303.73 139.13,-303.73"/>
</g>
<!-- 187 -->
<g id="node15" class="node">
<title>187</title>
<ellipse fill="#9370db" stroke="black" cx="201.63" cy="-267.84" rx="24.12" ry="24.12"/>
<text text-anchor="middle" x="201.63" y="-262.42" font-family="Times New Roman,serif" font-size="14.00">187</text>
</g>
<!-- 222&#45;&gt;187 -->
<g id="edge14" class="edge">
<title>222&#45;&gt;187</title>
<path fill="none" stroke="black" d="M201.63,-327.74C201.63,-320.27 201.63,-311.84 201.63,-303.73"/>
<polygon fill="black" stroke="black" points="205.13,-303.76 201.63,-293.76 198.13,-303.76 205.13,-303.76"/>
</g>
<!-- 369 -->
<g id="node16" class="node">
<title>369</title>
<ellipse fill="#9370db" stroke="black" cx="267.63" cy="-267.84" rx="24.12" ry="24.12"/>
<text text-anchor="middle" x="267.63" y="-262.42" font-family="Times New Roman,serif" font-size="14.00">369</text>
</g>
<!-- 222&#45;&gt;369 -->
<g id="edge15" class="edge">
<title>222&#45;&gt;369</title>
<path fill="none" stroke="black" d="M216.27,-332.83C224.93,-322.05 236.05,-308.18 245.74,-296.12"/>
<polygon fill="black" stroke="black" points="248.32,-298.5 251.84,-288.51 242.86,-294.12 248.32,-298.5"/>
</g>
<!-- 18 -->
<g id="node6" class="node">
<title>18</title>
<ellipse fill="#9370db" stroke="black" cx="19.63" cy="-183.61" rx="19.63" ry="19.63"/>
<text text-anchor="middle" x="19.63" y="-178.18" font-family="Times New Roman,serif" font-size="14.00">18</text>
</g>
<!-- 47&#45;&gt;18 -->
<g id="edge5" class="edge">
<title>47&#45;&gt;18</title>
<path fill="none" stroke="black" d="M63.22,-250.99C55.64,-239.46 45.23,-223.6 36.48,-210.28"/>
<polygon fill="black" stroke="black" points="39.44,-208.4 31.02,-201.96 33.59,-212.24 39.44,-208.4"/>
</g>
<!-- 78 -->
<g id="node7" class="node">
<title>78</title>
<ellipse fill="#9370db" stroke="black" cx="76.63" cy="-183.61" rx="19.63" ry="19.63"/>
<text text-anchor="middle" x="76.63" y="-178.18" font-family="Times New Roman,serif" font-size="14.00">78</text>
</g>
<!-- 47&#45;&gt;78 -->
<g id="edge6" class="edge">
<title>47&#45;&gt;78</title>
<path fill="none" stroke="black" d="M74.32,-247.77C74.68,-238.02 75.12,-225.91 75.52,-214.91"/>
<polygon fill="black" stroke="black" points="79.01,-215.21 75.88,-205.09 72.02,-214.96 79.01,-215.21"/>
</g>
<!-- 99 -->
<g id="node14" class="node">
<title>99</title>
<ellipse fill="#9370db" stroke="black" cx="135.63" cy="-183.61" rx="19.63" ry="19.63"/>
<text text-anchor="middle" x="135.63" y="-178.18" font-family="Times New Roman,serif" font-size="14.00">99</text>
</g>
<!-- 100&#45;&gt;99 -->
<g id="edge13" class="edge">
<title>100&#45;&gt;99</title>
<path fill="none" stroke="black" d="M135.63,-243.5C135.63,-234.62 135.63,-224.37 135.63,-214.93"/>
<polygon fill="black" stroke="black" points="139.13,-215.1 135.63,-205.1 132.13,-215.1 139.13,-215.1"/>
</g>
<!-- 6 -->
<g id="node8" class="node">
<title>6</title>
<ellipse fill="#9370db" stroke="black" cx="19.63" cy="-99.37" rx="18" ry="18"/>
<text text-anchor="middle" x="19.63" y="-93.95" font-family="Times New Roman,serif" font-size="14.00">6</text>
</g>
<!-- 18&#45;&gt;6 -->
<g id="edge7" class="edge">
<title>18&#45;&gt;6</title>
<path fill="none" stroke="black" d="M19.63,-163.54C19.63,-153.25 19.63,-140.36 19.63,-128.91"/>
<polygon fill="black" stroke="black" points="23.13,-129.18 19.63,-119.18 16.13,-129.18 23.13,-129.18"/>
</g>
<!-- 66 -->
<g id="node9" class="node">
<title>66</title>
<ellipse fill="#9370db" stroke="black" cx="76.63" cy="-99.37" rx="19.63" ry="19.63"/>
<text text-anchor="middle" x="76.63" y="-93.95" font-family="Times New Roman,serif" font-size="14.00">66</text>
</g>
<!-- 78&#45;&gt;66 -->
<g id="edge8" class="edge">
<title>78&#45;&gt;66</title>
<path fill="none" stroke="black" d="M76.63,-163.54C76.63,-153.78 76.63,-141.67 76.63,-130.67"/>
<polygon fill="black" stroke="black" points="80.13,-130.86 76.63,-120.86 73.13,-130.86 80.13,-130.86"/>
</g>
<!-- 86 -->
<g id="node10" class="node">
<title>86</title>
<ellipse fill="#9370db" stroke="black" cx="133.63" cy="-99.37" rx="19.63" ry="19.63"/>
<text text-anchor="middle" x="133.63" y="-93.95" font-family="Times New Roman,serif" font-size="14.00">86</text>
</g>
<!-- 78&#45;&gt;86 -->
<g id="edge9" class="edge">
<title>78&#45;&gt;86</title>
<path fill="none" stroke="black" d="M87.62,-166.75C95.74,-155.03 106.96,-138.85 116.29,-125.39"/>
<polygon fill="black" stroke="black" points="118.99,-127.64 121.81,-117.42 113.24,-123.65 118.99,-127.64"/>
</g>
<!-- 68 -->
<g id="node11" class="node">
<title>68</title>
<ellipse fill="#9370db" stroke="black" cx="76.63" cy="-19.63" rx="19.63" ry="19.63"/>
<text text-anchor="middle" x="76.63" y="-14.2" font-family="Times New Roman,serif" font-size="14.00">68</text>
</g>
<!-- 66&#45;&gt;68 -->
<g id="edge10" class="edge">
<title>66&#45;&gt;68</title>
<path fill="none" stroke="black" d="M76.63,-79.55C76.63,-70.93 76.63,-60.49 76.63,-50.8"/>
<polygon fill="black" stroke="black" points="80.13,-51.06 76.63,-41.06 73.13,-51.06 80.13,-51.06"/>
</g>
<!-- 82 -->
<g id="node12" class="node">
<title>82</title>
<ellipse fill="#9370db" stroke="black" cx="133.63" cy="-19.63" rx="19.63" ry="19.63"/>
<text text-anchor="middle" x="133.63" y="-14.2" font-family="Times New Roman,serif" font-size="14.00">82</text>
</g>
<!-- 86&#45;&gt;82 -->
<g id="edge11" class="edge">
<title>86&#45;&gt;82</title>
<path fill="none" stroke="black" d="M133.63,-79.55C133.63,-70.93 133.63,-60.49 133.63,-50.8"/>
<polygon fill="black" stroke="black" points="137.13,-51.06 133.63,-41.06 130.13,-51.06 137.13,-51.06"/>
</g>
<!-- 93 -->
<g id="node13" class="node">
<title>93</title>
<ellipse fill="#9370db" stroke="black" cx="190.63" cy="-19.63" rx="19.63" ry="19.63"/>
<text text-anchor="middle" x="190.63" y="-14.2" font-family="Times New Roman,serif" font-size="14.00">93</text>
</g>
<!-- 86&#45;&gt;93 -->
<g id="edge12" class="edge">
<title>86&#45;&gt;93</title>
<path fill="none" stroke="black" d="M144.89,-83.01C152.85,-72.15 163.69,-57.37 172.82,-44.92"/>
<polygon fill="black" stroke="black" points="175.4,-47.31 178.49,-37.18 169.76,-43.17 175.4,-47.31"/>
</g>
<!-- 231 -->
<g id="node17" class="node">
<title>231</title>
<ellipse fill="#9370db" stroke="black" cx="234.63" cy="-183.61" rx="24.12" ry="24.12"/>
<text text-anchor="middle" x="234.63" y="-178.18" font-family="Times New Roman,serif" font-size="14.00">231</text>
</g>
<!-- 369&#45;&gt;231 -->
<g id="edge16" class="edge">
<title>369&#45;&gt;231</title>
<path fill="none" stroke="black" d="M258.96,-245.24C255.46,-236.53 251.35,-226.29 247.52,-216.74"/>
<polygon fill="black" stroke="black" points="250.89,-215.74 243.92,-207.76 244.39,-218.35 250.89,-215.74"/>
</g>
<!-- 514 -->
<g id="node18" class="node">
<title>514</title>
<ellipse fill="#9370db" stroke="black" cx="300.63" cy="-183.61" rx="24.12" ry="24.12"/>
<text text-anchor="middle" x="300.63" y="-178.18" font-family="Times New Roman,serif" font-size="14.00">514</text>
</g>
<!-- 369&#45;&gt;514 -->
<g id="edge17" class="edge">
<title>369&#45;&gt;514</title>
<path fill="none" stroke="black" d="M276.3,-245.24C279.79,-236.53 283.9,-226.29 287.73,-216.74"/>
<polygon fill="black" stroke="black" points="290.86,-218.35 291.34,-207.76 284.36,-215.74 290.86,-218.35"/>
</g>
<!-- 496 -->
<g id="node19" class="node">
<title>496</title>
<ellipse fill="#9370db" stroke="black" cx="267.63" cy="-99.37" rx="24.12" ry="24.12"/>
<text text-anchor="middle" x="267.63" y="-93.95" font-family="Times New Roman,serif" font-size="14.00">496</text>
</g>
<!-- 514&#45;&gt;496 -->
<g id="edge18" class="edge">
<title>514&#45;&gt;496</title>
<path fill="none" stroke="black" d="M291.96,-161C288.46,-152.29 284.35,-142.05 280.52,-132.5"/>
<polygon fill="black" stroke="black" points="283.89,-131.5 276.92,-123.52 277.39,-134.11 283.89,-131.5"/>
</g>
<!-- 700 -->
<g id="node20" class="node">
<title>700</title>
<ellipse fill="#9370db" stroke="black" cx="333.63" cy="-99.37" rx="24.12" ry="24.12"/>
<text text-anchor="middle" x="333.63" y="-93.95" font-family="Times New Roman,serif" font-size="14.00">700</text>
</g>
<!-- 514&#45;&gt;700 -->
<g id="edge19" class="edge">
<title>514&#45;&gt;700</title>
<path fill="none" stroke="black" d="M309.3,-161C312.79,-152.29 316.9,-142.05 320.73,-132.5"/>
<polygon fill="black" stroke="black" points="323.86,-134.11 324.34,-123.52 317.36,-131.5 323.86,-134.11"/>
</g>
</g>
</svg>
