<?xml version="1.0" encoding="UTF-8" standalone="no"?>
<!DOCTYPE svg PUBLIC "-//W3C//DTD SVG 1.1//EN"
 "http://www.w3.org/Graphics/SVG/1.1/DTD/svg11.dtd">
<!-- Generated by graphviz version 10.0.1 (20240210.2158)
 -->
<!-- Title: ArvoreBin Pages: 1 -->
<svg width="269pt" height="637pt"
 viewBox="0.00 0.00 268.75 636.91" xmlns="http://www.w3.org/2000/svg" xmlns:xlink="http://www.w3.org/1999/xlink">
<g id="graph0" class="graph" transform="scale(1 1) rotate(0) translate(4 632.91)">
<title>ArvoreBin</title>
<polygon fill="white" stroke="none" points="-4,4 -4,-632.91 264.75,-632.91 264.75,4 -4,4"/>
<!-- 568 -->
<g id="node1" class="node">
<title>568</title>
<ellipse fill="#9370db" stroke="black" cx="163.63" cy="-604.79" rx="24.12" ry="24.12"/>
<text text-anchor="middle" x="163.63" y="-599.36" font-family="Times New Roman,serif" font-size="14.00">568</text>
</g>
<!-- 455 -->
<g id="node2" class="node">
<title>455</title>
<ellipse fill="#9370db" stroke="black" cx="130.63" cy="-520.55" rx="24.12" ry="24.12"/>
<text text-anchor="middle" x="130.63" y="-515.13" font-family="Times New Roman,serif" font-size="14.00">455</text>
</g>
<!-- 568&#45;&gt;455 -->
<g id="edge1" class="edge">
<title>568&#45;&gt;455</title>
<path fill="none" stroke="black" d="M154.96,-582.18C151.46,-573.47 147.35,-563.24 143.52,-553.68"/>
<polygon fill="black" stroke="black" points="146.89,-552.68 139.92,-544.71 140.39,-555.29 146.89,-552.68"/>
</g>
<!-- 698 -->
<g id="node3" class="node">
<title>698</title>
<ellipse fill="#9370db" stroke="black" cx="196.63" cy="-520.55" rx="24.12" ry="24.12"/>
<text text-anchor="middle" x="196.63" y="-515.13" font-family="Times New Roman,serif" font-size="14.00">698</text>
</g>
<!-- 568&#45;&gt;698 -->
<g id="edge2" class="edge">
<title>568&#45;&gt;698</title>
<path fill="none" stroke="black" d="M172.3,-582.18C175.79,-573.47 179.9,-563.24 183.73,-553.68"/>
<polygon fill="black" stroke="black" points="186.86,-555.29 187.34,-544.71 180.36,-552.68 186.86,-555.29"/>
</g>
<!-- 369 -->
<g id="node4" class="node">
<title>369</title>
<ellipse fill="#9370db" stroke="black" cx="64.63" cy="-436.32" rx="24.12" ry="24.12"/>
<text text-anchor="middle" x="64.63" y="-430.89" font-family="Times New Roman,serif" font-size="14.00">369</text>
</g>
<!-- 455&#45;&gt;369 -->
<g id="edge3" class="edge">
<title>455&#45;&gt;369</title>
<path fill="none" stroke="black" d="M115.98,-501.3C107.32,-490.52 96.2,-476.66 86.52,-464.59"/>
<polygon fill="black" stroke="black" points="89.4,-462.59 80.41,-456.98 83.94,-466.97 89.4,-462.59"/>
</g>
<!-- 506 -->
<g id="node5" class="node">
<title>506</title>
<ellipse fill="#9370db" stroke="black" cx="130.63" cy="-436.32" rx="24.12" ry="24.12"/>
<text text-anchor="middle" x="130.63" y="-430.89" font-family="Times New Roman,serif" font-size="14.00">506</text>
</g>
<!-- 455&#45;&gt;506 -->
<g id="edge4" class="edge">
<title>455&#45;&gt;506</title>
<path fill="none" stroke="black" d="M130.63,-496.21C130.63,-488.74 130.63,-480.31 130.63,-472.21"/>
<polygon fill="black" stroke="black" points="134.13,-472.23 130.63,-462.23 127.13,-472.24 134.13,-472.23"/>
</g>
<!-- 756 -->
<g id="node17" class="node">
<title>756</title>
<ellipse fill="#9370db" stroke="black" cx="196.63" cy="-436.32" rx="24.12" ry="24.12"/>
<text text-anchor="middle" x="196.63" y="-430.89" font-family="Times New Roman,serif" font-size="14.00">756</text>
</g>
<!-- 698&#45;&gt;756 -->
<g id="edge16" class="edge">
<title>698&#45;&gt;756</title>
<path fill="none" stroke="black" d="M196.63,-496.21C196.63,-488.74 196.63,-480.31 196.63,-472.21"/>
<polygon fill="black" stroke="black" points="200.13,-472.23 196.63,-462.23 193.13,-472.24 200.13,-472.23"/>
</g>
<!-- 40 -->
<g id="node6" class="node">
<title>40</title>
<ellipse fill="#9370db" stroke="black" cx="49.63" cy="-352.08" rx="19.63" ry="19.63"/>
<text text-anchor="middle" x="49.63" y="-346.66" font-family="Times New Roman,serif" font-size="14.00">40</text>
</g>
<!-- 369&#45;&gt;40 -->
<g id="edge5" class="edge">
<title>369&#45;&gt;40</title>
<path fill="none" stroke="black" d="M60.45,-412.41C58.78,-403.29 56.85,-392.67 55.08,-382.95"/>
<polygon fill="black" stroke="black" points="58.54,-382.41 53.3,-373.2 51.65,-383.67 58.54,-382.41"/>
</g>
<!-- 405 -->
<g id="node7" class="node">
<title>405</title>
<ellipse fill="#9370db" stroke="black" cx="111.63" cy="-352.08" rx="24.12" ry="24.12"/>
<text text-anchor="middle" x="111.63" y="-346.66" font-family="Times New Roman,serif" font-size="14.00">405</text>
</g>
<!-- 369&#45;&gt;405 -->
<g id="edge6" class="edge">
<title>369&#45;&gt;405</title>
<path fill="none" stroke="black" d="M76.25,-414.99C81.72,-405.4 88.37,-393.77 94.42,-383.18"/>
<polygon fill="black" stroke="black" points="97.31,-385.19 99.23,-374.77 91.23,-381.72 97.31,-385.19"/>
</g>
<!-- 7 -->
<g id="node8" class="node">
<title>7</title>
<ellipse fill="#9370db" stroke="black" cx="19.63" cy="-267.84" rx="18" ry="18"/>
<text text-anchor="middle" x="19.63" y="-262.42" font-family="Times New Roman,serif" font-size="14.00">7</text>
</g>
<!-- 40&#45;&gt;7 -->
<g id="edge7" class="edge">
<title>40&#45;&gt;7</title>
<path fill="none" stroke="black" d="M43.12,-333.24C39.13,-322.31 33.96,-308.13 29.48,-295.85"/>
<polygon fill="black" stroke="black" points="32.85,-294.87 26.13,-286.68 26.27,-297.27 32.85,-294.87"/>
</g>
<!-- 100 -->
<g id="node9" class="node">
<title>100</title>
<ellipse fill="#9370db" stroke="black" cx="79.63" cy="-267.84" rx="24.12" ry="24.12"/>
<text text-anchor="middle" x="79.63" y="-262.42" font-family="Times New Roman,serif" font-size="14.00">100</text>
</g>
<!-- 40&#45;&gt;100 -->
<g id="edge8" class="edge">
<title>40&#45;&gt;100</title>
<path fill="none" stroke="black" d="M56.14,-333.24C59.49,-324.05 63.68,-312.55 67.59,-301.83"/>
<polygon fill="black" stroke="black" points="70.87,-303.07 71.01,-292.48 64.29,-300.67 70.87,-303.07"/>
</g>
<!-- 9 -->
<g id="node10" class="node">
<title>9</title>
<ellipse fill="#9370db" stroke="black" cx="19.63" cy="-183.61" rx="18" ry="18"/>
<text text-anchor="middle" x="19.63" y="-178.18" font-family="Times New Roman,serif" font-size="14.00">9</text>
</g>
<!-- 7&#45;&gt;9 -->
<g id="edge9" class="edge">
<title>7&#45;&gt;9</title>
<path fill="none" stroke="black" d="M19.63,-249.4C19.63,-238.94 19.63,-225.37 19.63,-213.35"/>
<polygon fill="black" stroke="black" points="23.13,-213.54 19.63,-203.54 16.13,-213.54 23.13,-213.54"/>
</g>
<!-- 68 -->
<g id="node12" class="node">
<title>68</title>
<ellipse fill="#9370db" stroke="black" cx="77.63" cy="-183.61" rx="19.63" ry="19.63"/>
<text text-anchor="middle" x="77.63" y="-178.18" font-family="Times New Roman,serif" font-size="14.00">68</text>
</g>
<!-- 100&#45;&gt;68 -->
<g id="edge11" class="edge">
<title>100&#45;&gt;68</title>
<path fill="none" stroke="black" d="M79.06,-243.5C78.84,-234.62 78.59,-224.37 78.36,-214.93"/>
<polygon fill="black" stroke="black" points="81.87,-215.01 78.13,-205.09 74.87,-215.18 81.87,-215.01"/>
</g>
<!-- 186 -->
<g id="node13" class="node">
<title>186</title>
<ellipse fill="#9370db" stroke="black" cx="139.63" cy="-183.61" rx="24.12" ry="24.12"/>
<text text-anchor="middle" x="139.63" y="-178.18" font-family="Times New Roman,serif" font-size="14.00">186</text>
</g>
<!-- 100&#45;&gt;186 -->
<g id="edge12" class="edge">
<title>100&#45;&gt;186</title>
<path fill="none" stroke="black" d="M93.54,-247.77C101.12,-237.39 110.63,-224.35 119.04,-212.82"/>
<polygon fill="black" stroke="black" points="121.83,-214.94 124.89,-204.8 116.17,-210.82 121.83,-214.94"/>
</g>
<!-- 17 -->
<g id="node11" class="node">
<title>17</title>
<ellipse fill="#9370db" stroke="black" cx="19.63" cy="-99.37" rx="19.63" ry="19.63"/>
<text text-anchor="middle" x="19.63" y="-93.95" font-family="Times New Roman,serif" font-size="14.00">17</text>
</g>
<!-- 9&#45;&gt;17 -->
<g id="edge10" class="edge">
<title>9&#45;&gt;17</title>
<path fill="none" stroke="black" d="M19.63,-165.17C19.63,-155.16 19.63,-142.31 19.63,-130.7"/>
<polygon fill="black" stroke="black" points="23.13,-130.73 19.63,-120.73 16.13,-130.73 23.13,-130.73"/>
</g>
<!-- 51 -->
<g id="node14" class="node">
<title>51</title>
<ellipse fill="#9370db" stroke="black" cx="77.63" cy="-99.37" rx="19.63" ry="19.63"/>
<text text-anchor="middle" x="77.63" y="-93.95" font-family="Times New Roman,serif" font-size="14.00">51</text>
</g>
<!-- 68&#45;&gt;51 -->
<g id="edge13" class="edge">
<title>68&#45;&gt;51</title>
<path fill="none" stroke="black" d="M77.63,-163.54C77.63,-153.78 77.63,-141.67 77.63,-130.67"/>
<polygon fill="black" stroke="black" points="81.13,-130.86 77.63,-120.86 74.13,-130.86 81.13,-130.86"/>
</g>
<!-- 231 -->
<g id="node16" class="node">
<title>231</title>
<ellipse fill="#9370db" stroke="black" cx="139.63" cy="-99.37" rx="24.12" ry="24.12"/>
<text text-anchor="middle" x="139.63" y="-93.95" font-family="Times New Roman,serif" font-size="14.00">231</text>
</g>
<!-- 186&#45;&gt;231 -->
<g id="edge15" class="edge">
<title>186&#45;&gt;231</title>
<path fill="none" stroke="black" d="M139.63,-159.26C139.63,-151.8 139.63,-143.36 139.63,-135.26"/>
<polygon fill="black" stroke="black" points="143.13,-135.29 139.63,-125.29 136.13,-135.29 143.13,-135.29"/>
</g>
<!-- 61 -->
<g id="node15" class="node">
<title>61</title>
<ellipse fill="#9370db" stroke="black" cx="77.63" cy="-19.63" rx="19.63" ry="19.63"/>
<text text-anchor="middle" x="77.63" y="-14.2" font-family="Times New Roman,serif" font-size="14.00">61</text>
</g>
<!-- 51&#45;&gt;61 -->
<g id="edge14" class="edge">
<title>51&#45;&gt;61</title>
<path fill="none" stroke="black" d="M77.63,-79.55C77.63,-70.93 77.63,-60.49 77.63,-50.8"/>
<polygon fill="black" stroke="black" points="81.13,-51.06 77.63,-41.06 74.13,-51.06 81.13,-51.06"/>
</g>
<!-- 861 -->
<g id="node18" class="node">
<title>861</title>
<ellipse fill="#9370db" stroke="black" cx="196.63" cy="-352.08" rx="24.12" ry="24.12"/>
<text text-anchor="middle" x="196.63" y="-346.66" font-family="Times New Roman,serif" font-size="14.00">861</text>
</g>
<!-- 756&#45;&gt;861 -->
<g id="edge17" class="edge">
<title>756&#45;&gt;861</title>
<path fill="none" stroke="black" d="M196.63,-411.97C196.63,-404.51 196.63,-396.07 196.63,-387.97"/>
<polygon fill="black" stroke="black" points="200.13,-388 196.63,-378 193.13,-388 200.13,-388"/>
</g>
<!-- 814 -->
<g id="node19" class="node">
<title>814</title>
<ellipse fill="#9370db" stroke="black" cx="170.63" cy="-267.84" rx="24.12" ry="24.12"/>
<text text-anchor="middle" x="170.63" y="-262.42" font-family="Times New Roman,serif" font-size="14.00">814</text>
</g>
<!-- 861&#45;&gt;814 -->
<g id="edge18" class="edge">
<title>861&#45;&gt;814</title>
<path fill="none" stroke="black" d="M189.52,-328.61C186.94,-320.45 183.97,-311.05 181.16,-302.15"/>
<polygon fill="black" stroke="black" points="184.53,-301.21 178.18,-292.73 177.86,-303.32 184.53,-301.21"/>
</g>
<!-- 900 -->
<g id="node20" class="node">
<title>900</title>
<ellipse fill="#9370db" stroke="black" cx="236.63" cy="-267.84" rx="24.12" ry="24.12"/>
<text text-anchor="middle" x="236.63" y="-262.42" font-family="Times New Roman,serif" font-size="14.00">900</text>
</g>
<!-- 861&#45;&gt;900 -->
<g id="edge19" class="edge">
<title>861&#45;&gt;900</title>
<path fill="none" stroke="black" d="M206.93,-329.9C211.31,-320.89 216.52,-310.18 221.34,-300.27"/>
<polygon fill="black" stroke="black" points="224.47,-301.84 225.7,-291.31 218.18,-298.77 224.47,-301.84"/>
</g>
</g>
</svg>
