<?xml version="1.0" encoding="UTF-8" standalone="no"?>
<!DOCTYPE svg PUBLIC "-//W3C//DTD SVG 1.1//EN"
 "http://www.w3.org/Graphics/SVG/1.1/DTD/svg11.dtd">
<!-- Generated by graphviz version 10.0.1 (20240210.2158)
 -->
<!-- Title: ArvoreBin Pages: 1 -->
<svg width="190pt" height="402pt"
 viewBox="0.00 0.00 190.24 402.16" xmlns="http://www.w3.org/2000/svg" xmlns:xlink="http://www.w3.org/1999/xlink">
<g id="graph0" class="graph" transform="scale(1 1) rotate(0) translate(4 398.16)">
<title>ArvoreBin</title>
<polygon fill="white" stroke="none" points="-4,4 -4,-398.16 186.24,-398.16 186.24,4 -4,4"/>
<!-- 23 -->
<g id="node1" class="node">
<title>23</title>
<ellipse fill="#9370db" stroke="black" cx="52.63" cy="-374.54" rx="19.63" ry="19.63"/>
<text text-anchor="middle" x="52.63" y="-369.11" font-family="Times New Roman,serif" font-size="14.00">23</text>
</g>
<!-- 10 -->
<g id="node2" class="node">
<title>10</title>
<ellipse fill="#9370db" stroke="black" cx="19.63" cy="-290.3" rx="19.63" ry="19.63"/>
<text text-anchor="middle" x="19.63" y="-284.87" font-family="Times New Roman,serif" font-size="14.00">10</text>
</g>
<!-- 23&#45;&gt;10 -->
<g id="edge1" class="edge">
<title>23&#45;&gt;10</title>
<path fill="none" stroke="black" d="M45.63,-356.1C41.37,-345.48 35.83,-331.68 30.96,-319.54"/>
<polygon fill="black" stroke="black" points="34.27,-318.38 27.29,-310.4 27.77,-320.99 34.27,-318.38"/>
</g>
<!-- 2003 -->
<g id="node3" class="node">
<title>2003</title>
<ellipse fill="#9370db" stroke="black" cx="85.63" cy="-290.3" rx="28.61" ry="28.61"/>
<text text-anchor="middle" x="85.63" y="-284.87" font-family="Times New Roman,serif" font-size="14.00">2003</text>
</g>
<!-- 23&#45;&gt;2003 -->
<g id="edge2" class="edge">
<title>23&#45;&gt;2003</title>
<path fill="none" stroke="black" d="M59.63,-356.1C62.96,-347.79 67.08,-337.52 71.05,-327.63"/>
<polygon fill="black" stroke="black" points="74.21,-329.14 74.69,-318.56 67.72,-326.53 74.21,-329.14"/>
</g>
<!-- 7 -->
<g id="node4" class="node">
<title>7</title>
<ellipse fill="#9370db" stroke="black" cx="19.63" cy="-197.08" rx="18" ry="18"/>
<text text-anchor="middle" x="19.63" y="-191.66" font-family="Times New Roman,serif" font-size="14.00">7</text>
</g>
<!-- 10&#45;&gt;7 -->
<g id="edge3" class="edge">
<title>10&#45;&gt;7</title>
<path fill="none" stroke="black" d="M19.63,-270.4C19.63,-257.76 19.63,-240.9 19.63,-226.63"/>
<polygon fill="black" stroke="black" points="23.13,-226.93 19.63,-216.93 16.13,-226.93 23.13,-226.93"/>
</g>
<!-- 777 -->
<g id="node7" class="node">
<title>777</title>
<ellipse fill="#9370db" stroke="black" cx="82.63" cy="-197.08" rx="24.12" ry="24.12"/>
<text text-anchor="middle" x="82.63" y="-191.66" font-family="Times New Roman,serif" font-size="14.00">777</text>
</g>
<!-- 2003&#45;&gt;777 -->
<g id="edge6" class="edge">
<title>2003&#45;&gt;777</title>
<path fill="none" stroke="black" d="M84.71,-261.44C84.42,-252.45 84.08,-242.37 83.77,-232.94"/>
<polygon fill="black" stroke="black" points="87.27,-232.87 83.45,-222.99 80.28,-233.1 87.27,-232.87"/>
</g>
<!-- 2022 -->
<g id="node8" class="node">
<title>2022</title>
<ellipse fill="#9370db" stroke="black" cx="153.63" cy="-197.08" rx="28.61" ry="28.61"/>
<text text-anchor="middle" x="153.63" y="-191.66" font-family="Times New Roman,serif" font-size="14.00">2022</text>
</g>
<!-- 2003&#45;&gt;2022 -->
<g id="edge7" class="edge">
<title>2003&#45;&gt;2022</title>
<path fill="none" stroke="black" d="M102.44,-266.75C110.77,-255.57 120.98,-241.88 130.08,-229.67"/>
<polygon fill="black" stroke="black" points="132.7,-232.01 135.87,-221.9 127.09,-227.83 132.7,-232.01"/>
</g>
<!-- 9 -->
<g id="node5" class="node">
<title>9</title>
<ellipse fill="#9370db" stroke="black" cx="19.63" cy="-108.35" rx="18" ry="18"/>
<text text-anchor="middle" x="19.63" y="-102.93" font-family="Times New Roman,serif" font-size="14.00">9</text>
</g>
<!-- 7&#45;&gt;9 -->
<g id="edge4" class="edge">
<title>7&#45;&gt;9</title>
<path fill="none" stroke="black" d="M19.63,-178.95C19.63,-167.26 19.63,-151.51 19.63,-137.95"/>
<polygon fill="black" stroke="black" points="23.13,-138.26 19.63,-128.26 16.13,-138.26 23.13,-138.26"/>
</g>
<!-- 8 -->
<g id="node6" class="node">
<title>8</title>
<ellipse fill="#9370db" stroke="black" cx="19.63" cy="-24.12" rx="18" ry="18"/>
<text text-anchor="middle" x="19.63" y="-18.69" font-family="Times New Roman,serif" font-size="14.00">8</text>
</g>
<!-- 9&#45;&gt;8 -->
<g id="edge5" class="edge">
<title>9&#45;&gt;8</title>
<path fill="none" stroke="black" d="M19.63,-89.91C19.63,-79.45 19.63,-65.88 19.63,-53.86"/>
<polygon fill="black" stroke="black" points="23.13,-54.05 19.63,-44.05 16.13,-54.05 23.13,-54.05"/>
</g>
<!-- 326 -->
<g id="node9" class="node">
<title>326</title>
<ellipse fill="#9370db" stroke="black" cx="82.63" cy="-108.35" rx="24.12" ry="24.12"/>
<text text-anchor="middle" x="82.63" y="-102.93" font-family="Times New Roman,serif" font-size="14.00">326</text>
</g>
<!-- 777&#45;&gt;326 -->
<g id="edge8" class="edge">
<title>777&#45;&gt;326</title>
<path fill="none" stroke="black" d="M82.63,-172.84C82.63,-164.07 82.63,-153.88 82.63,-144.27"/>
<polygon fill="black" stroke="black" points="86.13,-144.48 82.63,-134.48 79.13,-144.48 86.13,-144.48"/>
</g>
<!-- 498 -->
<g id="node10" class="node">
<title>498</title>
<ellipse fill="#9370db" stroke="black" cx="82.63" cy="-24.12" rx="24.12" ry="24.12"/>
<text text-anchor="middle" x="82.63" y="-18.69" font-family="Times New Roman,serif" font-size="14.00">498</text>
</g>
<!-- 326&#45;&gt;498 -->
<g id="edge9" class="edge">
<title>326&#45;&gt;498</title>
<path fill="none" stroke="black" d="M82.63,-84.01C82.63,-76.54 82.63,-68.11 82.63,-60.01"/>
<polygon fill="black" stroke="black" points="86.13,-60.04 82.63,-50.04 79.13,-60.04 86.13,-60.04"/>
</g>
</g>
</svg>
