<?xml version="1.0" encoding="UTF-8" standalone="no"?>
<!DOCTYPE svg PUBLIC "-//W3C//DTD SVG 1.1//EN"
 "http://www.w3.org/Graphics/SVG/1.1/DTD/svg11.dtd">
<!-- Generated by graphviz version 10.0.1 (20240210.2158)
 -->
<!-- Title: ArvoreBin Pages: 1 -->
<svg width="285pt" height="499pt"
 viewBox="0.00 0.00 284.63 498.78" xmlns="http://www.w3.org/2000/svg" xmlns:xlink="http://www.w3.org/1999/xlink">
<g id="graph0" class="graph" transform="scale(1 1) rotate(0) translate(4 494.78)">
<title>ArvoreBin</title>
<polygon fill="white" stroke="none" points="-4,4 -4,-494.78 280.63,-494.78 280.63,4 -4,4"/>
<!-- 64 -->
<g id="node1" class="node">
<title>64</title>
<ellipse fill="#9370db" stroke="black" cx="185" cy="-471.15" rx="19.63" ry="19.63"/>
<text text-anchor="middle" x="185" y="-465.73" font-family="Times New Roman,serif" font-size="14.00">64</text>
</g>
<!-- 52 -->
<g id="node2" class="node">
<title>52</title>
<ellipse fill="#9370db" stroke="black" cx="157" cy="-395.9" rx="19.63" ry="19.63"/>
<text text-anchor="middle" x="157" y="-390.47" font-family="Times New Roman,serif" font-size="14.00">52</text>
</g>
<!-- 64&#45;&gt;52 -->
<g id="edge1" class="edge">
<title>64&#45;&gt;52</title>
<path fill="none" stroke="black" d="M178.22,-452.42C175.12,-444.29 171.36,-434.45 167.87,-425.33"/>
<polygon fill="black" stroke="black" points="171.19,-424.23 164.35,-416.14 164.65,-426.73 171.19,-424.23"/>
</g>
<!-- 78 -->
<g id="node3" class="node">
<title>78</title>
<ellipse fill="#9370db" stroke="black" cx="214" cy="-395.9" rx="19.63" ry="19.63"/>
<text text-anchor="middle" x="214" y="-390.47" font-family="Times New Roman,serif" font-size="14.00">78</text>
</g>
<!-- 64&#45;&gt;78 -->
<g id="edge2" class="edge">
<title>64&#45;&gt;78</title>
<path fill="none" stroke="black" d="M192.02,-452.42C195.24,-444.29 199.13,-434.45 202.74,-425.33"/>
<polygon fill="black" stroke="black" points="205.96,-426.72 206.39,-416.13 199.45,-424.14 205.96,-426.72"/>
</g>
<!-- 10 -->
<g id="node4" class="node">
<title>10</title>
<ellipse fill="#9370db" stroke="black" cx="100" cy="-320.64" rx="19.63" ry="19.63"/>
<text text-anchor="middle" x="100" y="-315.22" font-family="Times New Roman,serif" font-size="14.00">10</text>
</g>
<!-- 52&#45;&gt;10 -->
<g id="edge3" class="edge">
<title>52&#45;&gt;10</title>
<path fill="none" stroke="black" d="M145.19,-379.72C137.55,-369.9 127.43,-356.9 118.71,-345.69"/>
<polygon fill="black" stroke="black" points="121.63,-343.74 112.72,-338 116.1,-348.04 121.63,-343.74"/>
</g>
<!-- 60 -->
<g id="node5" class="node">
<title>60</title>
<ellipse fill="#9370db" stroke="black" cx="157" cy="-320.64" rx="19.63" ry="19.63"/>
<text text-anchor="middle" x="157" y="-315.22" font-family="Times New Roman,serif" font-size="14.00">60</text>
</g>
<!-- 52&#45;&gt;60 -->
<g id="edge4" class="edge">
<title>52&#45;&gt;60</title>
<path fill="none" stroke="black" d="M151.08,-376.79C150.32,-369.04 150.08,-359.79 150.37,-351.11"/>
<polygon fill="black" stroke="black" points="153.85,-351.51 150.98,-341.31 146.86,-351.07 153.85,-351.51"/>
</g>
<!-- 81 -->
<g id="node16" class="node">
<title>81</title>
<ellipse fill="#9370db" stroke="black" cx="214" cy="-320.64" rx="19.63" ry="19.63"/>
<text text-anchor="middle" x="214" y="-315.22" font-family="Times New Roman,serif" font-size="14.00">81</text>
</g>
<!-- 78&#45;&gt;81 -->
<g id="edge16" class="edge">
<title>78&#45;&gt;81</title>
<path fill="none" stroke="black" d="M214,-376.03C214,-368.74 214,-360.21 214,-352.1"/>
<polygon fill="black" stroke="black" points="217.5,-352.21 214,-342.21 210.5,-352.21 217.5,-352.21"/>
</g>
<!-- 5 -->
<g id="node6" class="node">
<title>5</title>
<ellipse fill="#9370db" stroke="black" cx="72" cy="-245.39" rx="18" ry="18"/>
<text text-anchor="middle" x="72" y="-239.97" font-family="Times New Roman,serif" font-size="14.00">5</text>
</g>
<!-- 10&#45;&gt;5 -->
<g id="edge5" class="edge">
<title>10&#45;&gt;5</title>
<path fill="none" stroke="black" d="M93.22,-301.91C89.92,-293.27 85.88,-282.69 82.21,-273.1"/>
<polygon fill="black" stroke="black" points="85.52,-271.97 78.68,-263.87 78.98,-274.46 85.52,-271.97"/>
</g>
<!-- 14 -->
<g id="node7" class="node">
<title>14</title>
<ellipse fill="#9370db" stroke="black" cx="128" cy="-245.39" rx="19.63" ry="19.63"/>
<text text-anchor="middle" x="128" y="-239.97" font-family="Times New Roman,serif" font-size="14.00">14</text>
</g>
<!-- 10&#45;&gt;14 -->
<g id="edge6" class="edge">
<title>10&#45;&gt;14</title>
<path fill="none" stroke="black" d="M106.78,-301.91C109.88,-293.78 113.64,-283.95 117.13,-274.82"/>
<polygon fill="black" stroke="black" points="120.35,-276.22 120.65,-265.63 113.81,-273.72 120.35,-276.22"/>
</g>
<!-- 60&#45;&gt;52 -->
<g id="edge15" class="edge">
<title>60&#45;&gt;52</title>
<path fill="none" stroke="black" d="M162.92,-339.8C163.68,-347.55 163.92,-356.8 163.63,-365.49"/>
<polygon fill="black" stroke="black" points="160.15,-365.08 163.01,-375.28 167.14,-365.52 160.15,-365.08"/>
</g>
<!-- 1 -->
<g id="node8" class="node">
<title>1</title>
<ellipse fill="#9370db" stroke="black" cx="18" cy="-170.14" rx="18" ry="18"/>
<text text-anchor="middle" x="18" y="-164.71" font-family="Times New Roman,serif" font-size="14.00">1</text>
</g>
<!-- 5&#45;&gt;1 -->
<g id="edge7" class="edge">
<title>5&#45;&gt;1</title>
<path fill="none" stroke="black" d="M61.59,-230.27C54.12,-220.13 43.88,-206.25 35.21,-194.48"/>
<polygon fill="black" stroke="black" points="38.03,-192.41 29.28,-186.43 32.39,-196.56 38.03,-192.41"/>
</g>
<!-- 7 -->
<g id="node9" class="node">
<title>7</title>
<ellipse fill="#9370db" stroke="black" cx="72" cy="-170.14" rx="18" ry="18"/>
<text text-anchor="middle" x="72" y="-164.71" font-family="Times New Roman,serif" font-size="14.00">7</text>
</g>
<!-- 5&#45;&gt;7 -->
<g id="edge8" class="edge">
<title>5&#45;&gt;7</title>
<path fill="none" stroke="black" d="M72,-227.03C72,-218.97 72,-209.17 72,-200.04"/>
<polygon fill="black" stroke="black" points="75.5,-200.14 72,-190.14 68.5,-200.14 75.5,-200.14"/>
</g>
<!-- 26 -->
<g id="node11" class="node">
<title>26</title>
<ellipse fill="#9370db" stroke="black" cx="128" cy="-170.14" rx="19.63" ry="19.63"/>
<text text-anchor="middle" x="128" y="-164.71" font-family="Times New Roman,serif" font-size="14.00">26</text>
</g>
<!-- 14&#45;&gt;26 -->
<g id="edge10" class="edge">
<title>14&#45;&gt;26</title>
<path fill="none" stroke="black" d="M128,-225.53C128,-218.23 128,-209.7 128,-201.59"/>
<polygon fill="black" stroke="black" points="131.5,-201.7 128,-191.7 124.5,-201.7 131.5,-201.7"/>
</g>
<!-- 6 -->
<g id="node10" class="node">
<title>6</title>
<ellipse fill="#9370db" stroke="black" cx="72" cy="-94.88" rx="18" ry="18"/>
<text text-anchor="middle" x="72" y="-89.46" font-family="Times New Roman,serif" font-size="14.00">6</text>
</g>
<!-- 7&#45;&gt;6 -->
<g id="edge9" class="edge">
<title>7&#45;&gt;6</title>
<path fill="none" stroke="black" d="M72,-151.78C72,-143.72 72,-133.91 72,-124.78"/>
<polygon fill="black" stroke="black" points="75.5,-124.88 72,-114.88 68.5,-124.88 75.5,-124.88"/>
</g>
<!-- 23 -->
<g id="node12" class="node">
<title>23</title>
<ellipse fill="#9370db" stroke="black" cx="128" cy="-94.88" rx="19.63" ry="19.63"/>
<text text-anchor="middle" x="128" y="-89.46" font-family="Times New Roman,serif" font-size="14.00">23</text>
</g>
<!-- 26&#45;&gt;23 -->
<g id="edge11" class="edge">
<title>26&#45;&gt;23</title>
<path fill="none" stroke="black" d="M128,-150.27C128,-142.98 128,-134.45 128,-126.33"/>
<polygon fill="black" stroke="black" points="131.5,-126.45 128,-116.45 124.5,-126.45 131.5,-126.45"/>
</g>
<!-- 36 -->
<g id="node13" class="node">
<title>36</title>
<ellipse fill="#9370db" stroke="black" cx="185" cy="-94.88" rx="19.63" ry="19.63"/>
<text text-anchor="middle" x="185" y="-89.46" font-family="Times New Roman,serif" font-size="14.00">36</text>
</g>
<!-- 26&#45;&gt;36 -->
<g id="edge12" class="edge">
<title>26&#45;&gt;36</title>
<path fill="none" stroke="black" d="M139.81,-153.96C147.45,-144.14 157.57,-131.14 166.29,-119.93"/>
<polygon fill="black" stroke="black" points="168.9,-122.28 172.28,-112.23 163.37,-117.98 168.9,-122.28"/>
</g>
<!-- 35 -->
<g id="node14" class="node">
<title>35</title>
<ellipse fill="#9370db" stroke="black" cx="156" cy="-19.63" rx="19.63" ry="19.63"/>
<text text-anchor="middle" x="156" y="-14.2" font-family="Times New Roman,serif" font-size="14.00">35</text>
</g>
<!-- 36&#45;&gt;35 -->
<g id="edge13" class="edge">
<title>36&#45;&gt;35</title>
<path fill="none" stroke="black" d="M177.98,-76.15C174.76,-68.02 170.87,-58.18 167.26,-49.06"/>
<polygon fill="black" stroke="black" points="170.55,-47.87 163.61,-39.86 164.04,-50.44 170.55,-47.87"/>
</g>
<!-- 49 -->
<g id="node15" class="node">
<title>49</title>
<ellipse fill="#9370db" stroke="black" cx="213" cy="-19.63" rx="19.63" ry="19.63"/>
<text text-anchor="middle" x="213" y="-14.2" font-family="Times New Roman,serif" font-size="14.00">49</text>
</g>
<!-- 36&#45;&gt;49 -->
<g id="edge14" class="edge">
<title>36&#45;&gt;49</title>
<path fill="none" stroke="black" d="M191.78,-76.15C194.88,-68.02 198.64,-58.18 202.13,-49.06"/>
<polygon fill="black" stroke="black" points="205.35,-50.45 205.65,-39.86 198.81,-47.96 205.35,-50.45"/>
</g>
<!-- 96 -->
<g id="node17" class="node">
<title>96</title>
<ellipse fill="#9370db" stroke="black" cx="214" cy="-245.39" rx="19.63" ry="19.63"/>
<text text-anchor="middle" x="214" y="-239.97" font-family="Times New Roman,serif" font-size="14.00">96</text>
</g>
<!-- 81&#45;&gt;96 -->
<g id="edge17" class="edge">
<title>81&#45;&gt;96</title>
<path fill="none" stroke="black" d="M214,-300.78C214,-293.49 214,-284.96 214,-276.84"/>
<polygon fill="black" stroke="black" points="217.5,-276.96 214,-266.96 210.5,-276.96 217.5,-276.96"/>
</g>
<!-- 88 -->
<g id="node18" class="node">
<title>88</title>
<ellipse fill="#9370db" stroke="black" cx="200" cy="-170.14" rx="19.63" ry="19.63"/>
<text text-anchor="middle" x="200" y="-164.71" font-family="Times New Roman,serif" font-size="14.00">88</text>
</g>
<!-- 96&#45;&gt;88 -->
<g id="edge18" class="edge">
<title>96&#45;&gt;88</title>
<path fill="none" stroke="black" d="M210.47,-225.9C209.02,-218.33 207.31,-209.37 205.69,-200.91"/>
<polygon fill="black" stroke="black" points="209.18,-200.52 203.86,-191.36 202.3,-201.84 209.18,-200.52"/>
</g>
<!-- 99 -->
<g id="node19" class="node">
<title>99</title>
<ellipse fill="#9370db" stroke="black" cx="257" cy="-170.14" rx="19.63" ry="19.63"/>
<text text-anchor="middle" x="257" y="-164.71" font-family="Times New Roman,serif" font-size="14.00">99</text>
</g>
<!-- 96&#45;&gt;99 -->
<g id="edge19" class="edge">
<title>96&#45;&gt;99</title>
<path fill="none" stroke="black" d="M223.54,-228.13C228.85,-219.09 235.58,-207.62 241.62,-197.35"/>
<polygon fill="black" stroke="black" points="244.52,-199.3 246.57,-188.91 238.49,-195.76 244.52,-199.3"/>
</g>
</g>
</svg>
